<svg width="24" height="24" viewBox="0 0 24 24" fill="none" xmlns="http://www.w3.org/2000/svg">
<path d="M17.9815 18.7249C17.2828 17.7998 16.3788 17.0496 15.3407 16.5333C14.3026 16.0171 13.1589 15.7489 11.9995 15.7499C10.8402 15.7489 9.69641 16.0171 8.65834 16.5333C7.62028 17.0496 6.71627 17.7998 6.01753 18.7249M17.9815 18.7249C19.345 17.5121 20.3066 15.9135 20.7407 14.141C21.1748 12.3686 21.0598 10.506 20.411 8.80043C19.7622 7.09482 18.6103 5.62673 17.1079 4.59085C15.6056 3.55497 13.8239 3.00024 11.999 3.00024C10.1742 3.00024 8.39246 3.55497 6.89013 4.59085C5.3878 5.62673 4.23585 7.09482 3.58706 8.80043C2.93826 10.506 2.82328 12.3686 3.25734 14.141C3.69141 15.9135 4.65403 17.5121 6.01753 18.7249M17.9815 18.7249C16.3355 20.1931 14.2052 21.0031 11.9995 20.9999C9.79355 21.0033 7.66376 20.1934 6.01753 18.7249M14.9995 9.74995C14.9995 10.5456 14.6835 11.3087 14.1208 11.8713C13.5582 12.4339 12.7952 12.7499 11.9995 12.7499C11.2039 12.7499 10.4408 12.4339 9.8782 11.8713C9.3156 11.3087 8.99953 10.5456 8.99953 9.74995C8.99953 8.9543 9.3156 8.19124 9.8782 7.62863C10.4408 7.06602 11.2039 6.74995 11.9995 6.74995C12.7952 6.74995 13.5582 7.06602 14.1208 7.62863C14.6835 8.19124 14.9995 8.9543 14.9995 9.74995Z" stroke="white" stroke-width="1.5" stroke-linecap="round" stroke-linejoin="round"/>
</svg>
